# Created by Kenney (www.kenney.nl)

mtllib Cabin1.mtl

g mergedBlocks

v -0.5 0.2 -0.5
v -0.5 0.5 -0.5
v -0.3 0.2 0.5
v -0.3 0.3 0.5
v 0.3 3.609557E-16 -0.5
v -0.3 5.398221E-17 -0.5
v 0.1 3.609557E-16 0.5
v -0.1 5.398221E-17 0.5
v 0.5 0.5 -0.5
v 0.5 0.2 -0.5
v 0.3 0.3 0.5
v 0.3 0.2 0.5
v -0.5 0.9 -0.5
v 0.5 0.9 -0.5
v -0.4 1 -0.5
v 0.4 1 -0.5
v 0.3471729 0.8679324 -0.2358647
v -0.3471729 0.8679324 -0.2358647
v 0.3 0.4 0.5
v -0.3 0.4 0.5
v 0.2357771 0.5894427 0.3211145
v 0.2857771 0.5394427 0.3211145
v 0.2178885 0.5447214 0.4105573
v 0.3971729 0.8179323 -0.2358647
v -0.2357771 0.5894427 0.3211145
v -0.2178885 0.5447214 0.4105573
v -0.3971729 0.8179323 -0.2358647
v -0.2857771 0.5394427 0.3211145

vn -0.9805807 0 0.1961161
vn 0 -1 0
vn 0.9805807 0 0.1961161
vn 0 0 -1
vn 0.70014 -0.70014 0.140028
vn -0.70014 -0.70014 0.140028
vn 0 0 1
vn 0 0.8944272 0.4472136
vn 0.6337243 0.6337243 0.443607
vn -0.6337243 0.6337243 0.443607
vn 0 0.5257311 0.8506508

vt -0.5 0.2
vt -0.5 0.5
vt 0.5 0.2
vt 0.5 0.3
vt -0.3 0.5
vt 0.3 0.5
vt -0.1 -0.5
vt 0.1 -0.5
vt 0.5 0.5
vt -0.5 0.3
vt 0.3 5.398221E-17
vt -0.3 3.609557E-16
vt 0.5 3.609557E-16
vt -0.3 -0.5
vt 0.3 -0.5
vt -0.5 5.398221E-17
vt -0.1 5.398221E-17
vt -0.3 0.2
vt 0.1 3.609557E-16
vt 0.3 0.2
vt 0.3 0.3
vt -0.3 0.3
vt 0.5 0.9
vt -0.5 0.9
vt 0.4 1
vt -0.4 1
vt -0.4 -0.5
vt -0.3471729 -0.2358647
vt 0.4 -0.5
vt 0.3471729 -0.2358647
vt -0.5 0.4
vt 0.5 0.4
vt 0.3 0.4
vt -0.3 0.4
vt -0.2357771 0.3211145
vt -0.2857771 0.3211145
vt -0.2178885 0.4105573
vt 0.5 1
vt 0.2358647 0.8679324
vt 0.2358647 0.8179323
vt -0.3971729 -0.2358647
vt -0.5 -0.5
vt 0.2357771 0.3211145
vt 0.2178885 0.4105573
vt -0.2358647 0.8679324
vt -0.2358647 0.8179323
vt -0.5 1
vt 0.4105573 0.5447214
vt 0.3211145 0.5894427
vt 0.2857771 0.3211145
vt 0.3971729 -0.2358647
vt 0.5 -0.5
vt 0.2178885 0.5447214
vt -0.2178885 0.5447214
vt -0.3211145 0.5394427
vt 0.3211145 0.5394427

usemtl metalPurple(Clone)

f 3/3/1 2/2/1 1/1/1
f 2/2/1 3/3/1 4/4/1
f 7/7/2 6/6/2 5/5/2
f 6/6/2 7/7/2 8/8/2
f 11/10/3 10/3/3 9/9/3
f 10/3/3 11/10/3 12/1/3
f 1/3/4 5/12/4 6/11/4
f 5/12/4 1/3/4 10/1/4
f 10/1/4 1/3/4 2/9/4
f 10/1/4 2/9/4 9/2/4
f 12/1/5 5/13/5 10/3/5
f 5/5/5 12/14/5 7/7/5
f 3/15/6 6/6/6 8/8/6
f 6/16/6 3/3/6 1/1/6
f 7/19/7 3/18/7 8/17/7
f 3/18/7 7/19/7 12/20/7
f 3/18/7 12/20/7 11/21/7
f 3/18/7 11/21/7 4/22/7

usemtl _defaultMat(Clone)

f 13/23/4 9/2/4 2/9/4
f 9/2/4 13/23/4 14/24/4
f 14/24/4 13/23/4 15/25/4
f 14/24/4 15/25/4 16/26/4
f 15/29/8 17/28/8 16/27/8
f 17/28/8 15/29/8 18/30/8
f 19/31/3 9/9/3 14/23/3
f 9/9/3 19/31/3 11/10/3
f 4/4/1 13/24/1 2/2/1
f 13/24/1 4/4/1 20/32/1
f 19/33/7 4/22/7 11/21/7
f 4/22/7 19/33/7 20/34/7
f 23/37/9 22/36/9 21/35/9
f 17/39/9 14/23/9 16/38/9
f 14/23/9 17/39/9 24/40/9
f 14/42/9 24/41/9 19/5/9
f 19/5/9 24/41/9 22/36/9
f 19/5/9 22/36/9 23/37/9
f 25/43/8 23/37/8 21/35/8
f 23/37/8 25/43/8 26/44/8
f 15/47/10 27/46/10 18/45/10
f 25/49/10 20/32/10 26/48/10
f 20/6/10 25/43/10 28/50/10
f 20/6/10 28/50/10 27/51/10
f 20/6/10 27/51/10 13/52/10
f 13/24/10 27/46/10 15/47/10
f 23/53/11 20/34/11 19/33/11
f 20/34/11 23/53/11 26/54/11

usemtl shield(Clone)

f 18/30/8 21/35/8 17/28/8
f 21/35/8 18/30/8 25/43/8
f 17/39/9 22/55/9 24/40/9
f 22/36/9 17/28/9 21/35/9
f 28/56/10 18/45/10 27/46/10
f 18/30/10 28/50/10 25/43/10

